<svg id="Layer_1" data-name="Layer 1" xmlns="http://www.w3.org/2000/svg" viewBox="0 0 838.44 480.97">
  <g>
    <path d="M1143.17,860.6l-236.68,2.27,18.8-61.35,198.23,1.78-11.36-43.78H894L832.56,942.27l4.59,3.34.59.43,7.62,5.54h0l134.94,98h0l18.93,13.76,21-15h0l135.06-96.57h0l6.64-4.75.26-.19,1-.74,4.21-3ZM1067,891.71l-63.42,159.69L1061,889.49H938.16l57.6,162.45L933.6,891.5l-90.66,42.55,56.24-167.31h207.4l7.59,29.26L920,794.26,896.7,870.18l241.08-2.31,20.2,67.28Z" transform="translate(-580.78 -759.52)"/>
    <g>
      <path d="M675.31,1150.52a47.08,47.08,0,0,0-5.14-12,39.65,39.65,0,0,0-8.36-9.84,37.56,37.56,0,0,0-11.46-6.61,41.86,41.86,0,0,0-14.44-2.38,39.82,39.82,0,0,0-22.43,6.52q-9.9,6.51-15.63,18.79t-5.73,29.57q0,17.24,5.76,29.51t15.82,18.82a43.95,43.95,0,0,0,43.95,1.28,36.38,36.38,0,0,0,14.18-15q5.11-9.78,5-23.24l3.75,1.19H639.48v-10.53h48.74v10.53q0,16.41-6.64,28.38A46.9,46.9,0,0,1,663.35,1234q-11.6,6.51-26.63,6.51-16.79,0-29.38-8.11a53.85,53.85,0,0,1-19.58-22.93q-7-14.81-7-34.86a86.75,86.75,0,0,1,4-27.25,61.18,61.18,0,0,1,11.37-20.8,50,50,0,0,1,17.45-13.25,53,53,0,0,1,22.3-4.6,53.68,53.68,0,0,1,19.26,3.32,50.58,50.58,0,0,1,26.37,22.46,49.47,49.47,0,0,1,5.8,16.06Z" transform="translate(-580.78 -759.52)"/>
      <path d="M729.06,1110.43v128.3H717.35v-128.3Z" transform="translate(-580.78 -759.52)"/>
      <path d="M755.37,1121v-10.53h93V1121H807.74v117.77H796V1121Z" transform="translate(-580.78 -759.52)"/>
      <path d="M859.86,1238.73H847.58l46.68-128.3h12.52l46.68,128.3H941.18L901,1125.65h-.88Zm8.84-49.18h63.64v10.53H868.7Z" transform="translate(-580.78 -759.52)"/>
      <path d="M975.44,1238.73v-128.3h41.41q13.67,0,22.84,4.92a33,33,0,0,1,13.84,13.59,41.38,41.38,0,0,1,4.67,19.89,40.8,40.8,0,0,1-4.67,19.8,32.5,32.5,0,0,1-13.81,13.4q-9.15,4.83-22.68,4.83H981.77v-10.71h35q10,0,16.69-3.32a22.14,22.14,0,0,0,10-9.46,30.3,30.3,0,0,0,3.29-14.54,31.11,31.11,0,0,0-3.32-14.69,22.73,22.73,0,0,0-10-9.74q-6.67-3.45-16.82-3.44H987.16v117.77Zm56.57-57.89,31.58,57.89h-13.54l-31.26-57.89Z" transform="translate(-580.78 -759.52)"/>
      <path d="M1086.76,1238.73v-128.3h74.43V1121h-62.71v48.3h58.76v10.52h-58.76v48.42h64v10.53Z" transform="translate(-580.78 -759.52)"/>
      <path d="M1291.36,1110.43v128.3H1280l-75.8-107.44h-1v107.44h-11.72v-128.3h11.34l76,107.56h1V1110.43Z" transform="translate(-580.78 -759.52)"/>
      <path d="M1325.63,1238.73h-12.28l46.67-128.3h12.53l46.67,128.3h-12.28l-40.22-113.08h-.87Zm8.83-49.18h63.65v10.53h-63.65Z" transform="translate(-580.78 -759.52)"/>
    </g>
  </g>
</svg>
