<svg width="334.84" height="303.82" data-name="Layer 1" version="1.1" viewBox="0 0 334.84 303.82" xmlns="http://www.w3.org/2000/svg">
  <g transform="translate(-251.78)">
    <path transform="translate(-580.78,-759.52)" d="m1143.2 860.6-236.68 2.27 18.8-61.35 198.23 1.78-11.36-43.78h-218.16l-61.44 182.75 4.59 3.34 0.59 0.43 7.62 5.54 134.94 98 18.93 13.76 21-15 135.06-96.57 6.64-4.75 0.26-0.19 1-0.74 4.21-3zm-76.17 31.11-63.42 159.69 57.42-161.91h-122.84l57.6 162.45-62.16-160.44-90.66 42.55 56.24-167.31h207.4l7.59 29.26-194.17-1.74-23.3 75.92 241.08-2.31 20.2 67.28z"/>
  </g>
</svg>
